<?xml version="1.0" encoding="UTF-8"?>
<svg width="152px" height="48px" viewBox="0 0 152 48" version="1.1" xmlns="http://www.w3.org/2000/svg" xmlns:xlink="http://www.w3.org/1999/xlink">
    <!-- Generator: Sketch 60.1 (88133) - https://sketch.com -->
    <title>LogoWithName</title>
    <desc>Created with Sketch.</desc>
    <defs>
        <path d="M40.1115893,37.7441301 C39.7880203,38.0756671 39.6407783,38.5520132 39.717126,39.0188325 L40.2061151,42.0083809 C40.3588105,42.940114 39.6516851,43.6965517 38.8518517,43.6965517 C38.6409865,43.6965517 38.4228501,43.643201 38.2119849,43.5269725 L35.6507001,42.1150825 C35.4507418,42.0045702 35.2307876,41.949314 35.0108334,41.949314 C34.7908792,41.949314 34.5727428,42.0045702 34.3709667,42.1150825 L31.8096819,43.5269725 C31.5988167,43.643201 31.3806803,43.6965517 31.1698151,43.6965517 C30.3699817,43.6965517 29.6646741,42.940114 29.8155517,42.0083809 L30.3063586,39.0188325 C30.3827063,38.5520132 30.2336465,38.0756671 29.9100775,37.7441301 L27.8377818,35.6272478 C27.0215881,34.7926893 27.4724033,33.3407862 28.5994414,33.1693016 L31.4642993,32.7329685 C31.9114789,32.6662801 32.298671,32.3709455 32.4986293,31.9460447 L33.7783628,29.2251554 C34.0310374,28.6897424 34.5218443,28.4229885 35.0108334,28.4229885 C35.5016403,28.4229885 35.9906293,28.6897424 36.243304,29.2251554 L37.5248553,31.9460447 C37.7248136,32.3709455 38.1101879,32.6662801 38.5591853,32.7329685 L41.4222254,33.1693016 C42.5492635,33.3407862 43.0000787,34.7926893 42.183885,35.6272478 L40.1115893,37.7441301 Z M19.9641076,19.016092 C19.5603323,18.9826426 19.156557,18.9547681 18.7453388,18.9547681 C18.3676136,18.9547681 17.9973311,18.9826426 17.6270487,19.0105171 C15.1132219,18.4678938 13.2208741,16.2360768 13.2208741,13.5657013 C13.2208741,10.4920749 15.7253974,7.9908046 18.803021,7.9908046 C21.8806446,7.9908046 24.3851679,10.4920749 24.3851679,13.5657013 C24.3851679,16.2416517 22.4853772,18.4809019 19.9641076,19.016092 L19.9641076,19.016092 Z M3.05811692,32.1655172 C3.05626588,32.125881 3.03590443,32.0937944 3.03590443,32.0541582 L3.03590443,5.6299707 C3.03590443,4.58810273 3.86517073,3.74252874 4.88694528,3.74252874 L17.7257646,3.74252874 C12.670572,3.8085892 8.58902698,8.00248524 8.58902698,13.1740762 C8.58902698,15.8995424 9.74037438,18.3400049 11.5543944,20.0632394 C6.9360475,22.2488972 3.60417397,26.7768704 3.05811692,32.1655172 L3.05811692,32.1655172 Z M26.6605342,21.5372414 C25.9610079,21.0213793 25.2158207,20.5681034 24.4286254,20.1831034 C26.2422796,18.4496552 27.3965892,16.0125862 27.3965892,13.2512069 C27.3965892,8.05655172 23.3692906,3.85948276 18.3812849,3.79310345 L31.0494678,3.79310345 C32.0576623,3.79310345 32.8759071,4.64275862 32.8759071,5.68965517 L32.8759071,22.9293103 C32.8759071,23.8813793 33.6210943,24.6551724 34.5379668,24.6551724 C35.9224078,24.6551724 36.5287856,23.8851724 36.5287856,22.9293103 L36.5287856,3.79310345 C36.5287856,1.69741379 34.8941225,0 32.8759071,0 L3.65287856,0 C1.6364896,0 0,1.69741379 0,3.79310345 L0,34.137931 C0,36.2317241 1.6364896,37.9310345 3.65287856,37.9310345 L22.0816509,37.9310345 C23.0003499,37.9310345 23.7437106,37.1572414 23.7437106,36.2051724 C23.7437106,34.7675862 23.0021763,34.137931 22.0816509,34.137931 L7.26009614,34.137931 C7.2582697,34.137931 7.2491375,34.0127586 7.2491375,33.935 C7.2491375,28.0651724 11.5540549,23.2289655 17.0571164,22.6315517 C17.4571066,22.6865517 17.8516175,22.7586207 18.2643928,22.7586207 C18.6552508,22.7586207 19.026018,22.6391379 19.4022645,22.5898276 C21.1337289,22.7851724 22.7355162,22.7662069 24.1272629,24.1108621 C25.9537022,25.8708621 28.7152784,23.0525862 26.6605342,21.5372414 L26.6605342,21.5372414 Z" id="path-1"></path>
        <filter x="-8.2%" y="-5.7%" width="116.4%" height="116.0%" filterUnits="objectBoundingBox" id="filter-2">
            <feOffset dx="0" dy="1" in="SourceAlpha" result="shadowOffsetOuter1"></feOffset>
            <feGaussianBlur stdDeviation="1" in="shadowOffsetOuter1" result="shadowBlurOuter1"></feGaussianBlur>
            <feColorMatrix values="0 0 0 0 0   0 0 0 0 0   0 0 0 0 0  0 0 0 0.5 0" type="matrix" in="shadowBlurOuter1"></feColorMatrix>
        </filter>
    </defs>
    <g id="Page-1" stroke="none" stroke-width="1" fill="none" fill-rule="evenodd">
        <g id="LogoWithName" transform="translate(2.000000, 1.000000)">
            <text id="Personalized-Recomme-Copy" font-family="Roboto-Bold, Roboto" font-size="12" font-weight="bold" fill="#8953B7">
                <tspan x="49" y="17">Personalized </tspan>
                <tspan x="49" y="31">Recommendations</tspan>
            </text>
            <g id="profile_image_favorite_round-[#1331]-copy-8">
                <use fill="black" fill-opacity="1" filter="url(#filter-2)" xlink:href="#path-1"></use>
                <use fill="#8953B7" fill-rule="evenodd" xlink:href="#path-1"></use>
            </g>
        </g>
    </g>
</svg>